<?xml version="1.0"?><svg width="468.00000000000006" height="468.00000000000006" xmlns="http://www.w3.org/2000/svg">
 <title>Pink Sakura</title>

 <g>
  <title>Layer 1</title>
  <path d="m293.411652,158.777832c15.566406,-46.699318 -20.609802,-107.767624 -31.132996,-108.965103c-15.566376,15.566437 -15.566376,15.566437 -31.132797,31.132889c-15.566513,-15.566452 -15.566513,-15.566452 -31.132996,-31.132889c-8.519897,6.262417 -46.699417,62.265785 -31.132904,112.047318c-39.603409,-26.15332 -108.861923,-15.441101 -113.252617,-5.803009c9.994308,19.614899 9.994308,19.614899 19.98848,39.229706c-19.614838,9.994385 -19.614838,9.994385 -39.229698,19.988708c3.32312,10.038086 45.91053,62.118866 95.134323,67.971771c-40.042717,34.8573 -47.793625,96.407349 -39.984016,103.56134c21.743225,-3.443787 21.743225,-3.443787 43.486427,-6.887634c3.443909,21.743347 3.443909,21.743347 6.887711,43.486511c10.5737,-0.058472 71.794678,-33.432007 89.235199,-71.667816c17.440475,55.624725 80.01799,76.265594 89.235214,71.048798c3.443787,-21.743164 3.443787,-21.743164 6.887756,-43.486267c21.743103,3.443665 21.743103,3.443665 43.200806,6.280579c2.926208,-10.681396 2.169312,-75.928802 -31.646881,-111.908691c55.450592,-6.975616 89.195953,-49.087189 87.082977,-59.465393c-19.614868,-9.994415 -19.614868,-9.994415 -39.229767,-19.988617c9.994171,-19.61499 9.994171,-19.61499 19.988617,-39.229889c-8.588806,-6.167816 -73.649597,-25.172516 -113.252838,4.062897" id="path572" stroke-width="2.928799" stroke="#ffaaaa" fill="#ffaaaa"/>
 </g>
</svg>